<svg width="134" height="238" viewBox="0 0 134 238" fill="none" xmlns="http://www.w3.org/2000/svg">
<g clip-path="url(#clip0_51_970)">
<path d="M98.9126 -5.8948C118.038 -22.2006 137.32 -34.2786 157.153 -31.1467V-21.6036C139.721 -23.3536 120.941 -17.4658 109.043 -4.84809C122.988 -14.064 140.544 -18.2836 157.153 -15.9694V-4.74997C127.782 -5.33874 101.149 -0.260572 81.8425 30.9199C62.5276 62.1004 57.9065 102.268 39.8496 127.741C21.7928 153.213 4.30332 159.093 -4.51131 166.142C-13.3259 173.191 -20.8579 193.389 -20.8579 193.389C-25.2487 190.069 -28.9242 186.503 -32.2297 182.742C-31.3746 180.648 -30.4372 178.596 -29.4423 176.707C-14.2387 146.32 16.9743 146.303 33.14 118.435C13.6113 142.493 -14.6169 141.83 -31.7281 169.126C-33.4384 171.882 -34.9678 174.785 -36.3246 177.803C-39.4821 173.779 -42.4175 169.593 -45.501 165.299C-39.5314 155.519 -31.7528 147.007 -21.417 140.833C-14.9294 136.826 -7.91548 133.546 -0.802922 130.218C13.5044 123.725 27.9433 116.022 38.4518 104.149C26.2823 114.248 12.0326 120.438 -2.59546 126.138C-14.7978 130.864 -27.4524 136.695 -37.2044 145.772C-38.4789 146.957 -39.7123 148.2 -40.8799 149.501C-40.9457 149.574 -41.0115 149.64 -41.0772 149.713C-44.1032 153.001 -46.7837 156.558 -49.1518 160.319C-51.4871 157.212 -53.9703 154.064 -56.7578 150.899C-56.7578 150.899 -53.4523 145.109 -46.8248 138.134C-45.6655 136.907 -44.3992 135.648 -43.026 134.372C-38.2487 129.932 -32.2215 125.345 -24.9527 121.673C15.3545 101.352 33.14 115.27 63.0867 44.151C105.351 -56.2431 157.153 -48.1393 157.153 -48.1393V-36.9199C155.122 -37.1979 153.034 -37.3288 150.896 -37.3043C129.484 -36.8545 111.6 -21.7835 98.9126 -5.8948Z" fill="white"/>
<path d="M-1.47465 181.593C-8.53284 180.285 -14.0872 176.558 -18.92 171.698C-20.0176 170.595 -21.0787 169.431 -22.1156 168.225C-24.6806 165.228 -27.0757 161.972 -29.4345 158.679C-30.338 157.425 -31.2355 156.165 -32.1329 154.91C-41.0587 142.47 -50.2817 130.88 -67.4784 132.894C-85.9 135.047 -96.5843 147.674 -91.9395 170.763C-91.9395 170.763 -90.751 165.427 -86.8278 159.168C-82.9045 152.908 -76.5073 150.496 -76.5073 150.496C-79.6059 158.914 -76.5073 169.075 -76.5073 169.075C-73.8211 159.017 -56.5455 151.033 -49.936 167.35C-41.2103 188.908 -69.4916 192.369 -69.4916 192.369C-61.73 197.989 -52.5616 202.373 -43.4903 205.66C-43.2538 205.75 -43.0112 205.834 -42.7747 205.919C-37.469 207.806 -32.2178 209.32 -27.3122 210.484C-26.6755 210.634 -26.0449 210.779 -25.4203 210.918C-19.1747 212.317 -13.5839 213.125 -9.31506 213.414C15.043 215.054 38.7158 198.948 54.8817 173.797C72.4301 146.492 79.0396 106.314 79.0396 106.314C62.3158 143.821 28.462 187.135 -1.47465 181.593ZM39.3282 184.144C38.637 184.934 36.6238 187.171 35.878 187.979C34.7258 189.155 33.3797 190.452 32.1851 191.615C30.8754 192.695 29.5232 193.931 28.1831 194.956L25.3574 197.03C6.11714 210.037 -11.2009 203.82 -23.2071 189.999C-24.2864 188.763 -25.3173 187.461 -26.3056 186.11C-29.6225 181.569 -32.43 176.438 -34.6372 171.029C-35.2254 169.6 -35.759 168.164 -36.2562 166.711C-35.6135 167.833 -34.9586 168.942 -34.2916 170.028C-31.5811 174.49 -28.7311 178.627 -25.7357 182.311C-24.6866 183.601 -23.6194 184.838 -22.534 186.007C-8.22359 201.481 9.36731 206.443 31.5909 188.329C33.6586 186.761 36.0113 184.584 37.976 182.866C39.1402 181.738 40.444 180.46 41.6264 179.344C43.2575 177.764 44.7795 176.094 46.4167 174.514C44.252 177.837 41.8568 181.069 39.3282 184.144ZM6.06257 193.406C-4.90066 193.979 -14.3904 188.112 -21.2727 180.014C-22.3945 178.705 -23.4375 177.336 -24.4138 175.925C-26.0692 173.525 -27.5123 171.011 -28.719 168.46C-27.1606 170.45 -25.5719 172.343 -23.9529 174.122C-22.8675 175.304 -21.776 176.438 -20.6603 177.505C-8.88454 188.848 4.83163 193.702 22.0708 184.253C32.0699 178.675 40.2802 170.89 48.4845 162.81C39.0675 177.125 24.3387 192.43 6.06257 193.406Z" fill="white"/>
<path d="M81.5384 101.359L94.1614 75.6834C94.6257 74.7351 94.726 73.6537 94.4374 72.6388L93.6344 69.7938C93.3667 68.8454 92.2583 68.4212 91.4218 68.9494L88.9081 70.5258C88.013 71.0873 87.3564 71.9608 87.0636 72.9715L79.1502 100.444L81.5384 101.359Z" fill="white"/>
<path d="M99.7323 96.5174L87.7994 86.9759L90.9782 78.7487L101.238 92.6284L99.7323 96.5174Z" fill="white"/>
<path d="M68.7859 84.6885L84.0732 85.5536L87.2519 77.3264L70.2875 80.8036L68.7859 84.6885Z" fill="white"/>
<path d="M88.921 102.623L82.689 97.6401L84.3495 93.3394L89.7074 100.593L88.921 102.623Z" fill="white"/>
<path d="M72.7557 96.4465L80.7402 96.8957L82.4007 92.5991L73.542 94.4126L72.7557 96.4465Z" fill="white"/>
<path d="M61.4026 1.56605C61.473 1.64066 70.197 10.9049 70.3673 21.6679C70.3185 21.7503 60.9137 37.6304 57.4419 46.8587C53.961 56.1109 50.9705 61.8018 48.9519 65.6757L34.0265 63.2636L36.8147 56.9755L56.752 12.047L61.4026 1.56605ZM52.3597 13.7573L35.1054 52.6291L33.1119 51.7701L50.1279 12.7944L52.3597 13.7573ZM47.0761 11.4745L30.06 50.4501L25.6165 48.5332L28.8238 41.1897L23.9956 39.1049L26.994 32.2348L31.8252 34.3204L32.6293 32.4817L32.6337 32.4708L27.7956 30.3825L30.7949 23.5124L35.6281 25.5989L42.6374 9.55733L47.0761 11.4745Z" fill="white"/>
</g>
<defs>
<clipPath id="clip0_51_970">
<rect width="133.249" height="237.224" fill="white" transform="translate(0 0.486328)"/>
</clipPath>
</defs>
</svg>
