<svg width="48" height="48" viewBox="0 0 48 48" fill="none" xmlns="http://www.w3.org/2000/svg">
<rect width="48" height="48" rx="14" fill="#216FAD"/>
<path d="M33.6348 37.8877C34.7819 37.8879 35.7118 38.8081 35.7119 39.9434C35.7119 41.0789 34.7802 42 33.6328 42H14.3692C13.2218 42 12.291 41.0789 12.291 39.9434C12.2912 38.808 13.2218 37.8877 14.3692 37.8877H33.6348ZM30.9356 33.7754C31.9043 33.7755 32.6893 34.553 32.6895 35.5117V36.6182H15.3135V35.5117C15.3137 34.553 16.0987 33.7756 17.0674 33.7754H30.9356ZM28.3272 32.5059H19.6748L20.332 30.3916C21.4819 30.7916 22.7164 31.0098 24.001 31.0098C25.2856 31.0098 26.5213 30.7904 27.6699 30.3916L28.3272 32.5059ZM13.5527 23.7471C14.4101 26.0928 16.053 28.0695 18.1641 29.3662C18.0332 29.4234 17.8991 29.4771 17.7617 29.5254C15.2912 30.3902 12.5432 29.437 11.1533 28.8096C10.5941 28.5568 10.3861 27.9686 10.6592 27.4238C11.1572 26.4357 12.1115 24.861 13.5527 23.7471ZM34.4483 23.7451C35.8895 24.859 36.8429 26.4347 37.3408 27.4229C37.6153 27.9677 37.4052 28.5559 36.8457 28.8086C35.4571 29.436 32.7092 30.3893 30.2373 29.5244C30.1 29.4761 29.9659 29.4227 29.835 29.3643C31.9475 28.0687 33.5909 26.0911 34.4483 23.7451ZM33.8213 20.0186C33.8213 25.3862 29.426 29.7392 24.001 29.7393C18.5772 29.7393 14.1787 25.3875 14.1787 20.0186V12.1299H33.8213V20.0186ZM23.7295 13.5703C20.1052 13.5704 17.1573 16.4874 17.1572 20.0742C17.1572 23.6611 20.1052 26.579 23.7295 26.5791C27.3539 26.5791 30.3018 23.6611 30.3018 20.0742C30.3017 16.4874 27.3539 13.5703 23.7295 13.5703ZM12.8955 20.0176C12.8955 20.8533 12.9903 21.6675 13.1699 22.4512C11.7621 23.4139 10.7401 24.7488 10.0625 25.8652C8.7779 25.0371 7.79859 23.9231 7.22365 23.1699C6.85285 22.6847 6.95203 22.0683 7.45509 21.7178C8.55508 20.9531 10.6446 19.7516 12.8955 19.749V20.0176ZM35.1055 19.7471C37.3565 19.7484 39.4461 20.9522 40.5459 21.7168C41.0489 22.0661 41.146 22.6848 40.7764 23.1699C40.2014 23.9231 39.2222 25.0362 37.9375 25.8643C37.2599 24.7478 36.238 23.4127 34.8301 22.4512C35.0098 21.6688 35.1055 20.8546 35.1055 20.0176V19.7471ZM23.7295 14.8389C26.6506 14.8389 29.0186 17.1824 29.0186 20.0732C29.0185 22.964 26.6505 25.3076 23.7295 25.3076C20.8086 25.3075 18.4405 22.964 18.4404 20.0732C18.4404 17.1824 20.8085 14.839 23.7295 14.8389ZM23.7305 15.7354C22.9696 15.7355 22.2777 16.1497 21.9248 16.8164L21.6055 17.4209L20.9268 17.5352C20.1761 17.6609 19.5641 18.1843 19.3291 18.9004C19.0943 19.6167 19.2783 20.3973 19.8096 20.9346L20.291 21.4219L20.1914 22.0967C20.1055 22.6771 20.2772 23.2638 20.6621 23.707C21.0522 24.1527 21.6143 24.409 22.207 24.4092C22.5215 24.4092 22.8271 24.3379 23.1133 24.1982L23.7305 23.8965L24.3486 24.1982C24.6348 24.3379 24.9386 24.4092 25.2529 24.4092C25.8459 24.4092 26.4087 24.1529 26.7988 23.707C27.185 23.2651 27.3568 22.678 27.2695 22.0977L27.169 21.4238L27.6504 20.9355C28.183 20.3971 28.3666 19.6174 28.1318 18.9023C27.897 18.1861 27.2849 17.6629 26.5342 17.5371L25.8555 17.4229L25.8565 17.4209L25.5371 16.8164C25.1842 16.1496 24.4916 15.7354 23.7305 15.7354ZM23.0596 17.4062C23.3419 16.8715 24.1161 16.8715 24.3984 17.4062L25.0127 18.5684L26.3193 18.7881C26.92 18.8897 27.1585 19.616 26.7324 20.0479H26.7344L25.8076 20.9854L26 22.2822C26.0884 22.8791 25.4637 23.3284 24.917 23.0605L23.7295 22.4785L22.542 23.0605C21.9954 23.3281 21.3707 22.8789 21.459 22.2822L21.6514 20.9854L20.7256 20.0479C20.2995 19.616 20.538 18.8897 21.1387 18.7881L22.4453 18.5684L23.0596 17.4062ZM8.19435 16.1592C9.27629 15.8899 11.1029 15.5809 12.8945 15.9365V18.4775C11.1901 18.4775 9.59045 19.0625 8.3545 19.6963C7.91685 18.8542 7.63025 18.0372 7.45314 17.4326C7.28255 16.8484 7.59889 16.3078 8.19435 16.1592ZM35.1065 15.9336C36.8981 15.578 38.7247 15.8886 39.8067 16.1592C40.4019 16.3079 40.7175 16.8485 40.5469 17.4326C40.3711 18.0371 40.0821 18.8536 39.6445 19.6943C38.4099 19.0619 36.8107 18.4788 35.1065 18.4775V15.9336ZM9.54591 10.8594C10.0246 10.867 10.6379 10.905 11.3115 11.0078C11.7441 11.4486 12.2872 11.7833 12.8955 11.9688V14.6436C12.3513 14.5521 11.7797 14.5049 11.1817 14.5049C10.3321 14.5049 9.53383 14.6003 8.86525 14.7197C8.58805 13.6453 8.50993 12.6203 8.49708 11.9014C8.48682 11.293 8.93212 10.8521 9.54689 10.8623L9.54591 10.8594ZM38.4561 10.8584C39.0708 10.8482 39.5161 11.2891 39.5059 11.8975L39.5049 11.8984C39.4921 12.6173 39.4139 13.6424 39.1367 14.7168C38.4682 14.5974 37.6698 14.502 36.8203 14.502C36.221 14.502 35.6494 14.5521 35.1065 14.6436V11.9658C35.7148 11.7816 36.2566 11.4463 36.6904 11.0068C37.3641 10.904 37.9774 10.8673 38.4561 10.8584ZM34.0117 6C35.3683 6.00001 36.4667 7.08846 36.4668 8.42969C36.4668 9.77097 35.367 10.8594 34.0117 10.8594H13.9902C12.6337 10.8594 11.5352 9.77097 11.5352 8.42969C11.5352 7.08846 12.635 6 13.9902 6H34.0117Z" fill="white"/>
</svg>
