<svg width="176" height="315" viewBox="0 0 176 315" fill="none" xmlns="http://www.w3.org/2000/svg">
<g clip-path="url(#clip0_51_647)">
<path d="M45.3529 -8.4732C20.0909 -30.125 -5.37736 -46.1629 -31.5734 -42.0041V-29.3323C-8.54868 -31.656 16.2571 -23.8379 31.9725 -7.08332C13.5528 -19.3208 -9.63475 -24.9238 -31.5734 -21.8508V-6.95302C7.22104 -7.73483 42.3988 -0.991742 67.8997 40.4115C93.4115 81.8148 99.5152 135.152 123.365 168.976C147.215 202.8 170.316 210.607 181.959 219.967C193.601 229.327 203.55 256.147 203.55 256.147C209.349 251.739 214.204 247.005 218.57 242.01C217.441 239.23 216.202 236.504 214.888 233.996C194.807 193.646 153.58 193.624 132.228 156.619C158.022 188.564 195.306 187.685 217.908 223.93C220.167 227.59 222.187 231.444 223.979 235.451C228.149 230.109 232.026 224.549 236.099 218.849C228.214 205.862 217.94 194.558 204.288 186.36C195.719 181.039 186.455 176.685 177.061 172.266C158.163 163.644 139.092 153.415 125.212 137.649C141.285 151.059 160.107 159.279 179.428 166.847C195.545 173.124 212.26 180.866 225.141 192.919C226.824 194.493 228.453 196.143 229.996 197.87C230.082 197.968 230.169 198.055 230.256 198.152C234.253 202.517 237.794 207.241 240.921 212.236C244.006 208.11 247.286 203.929 250.968 199.727C250.968 199.727 246.602 192.039 237.848 182.777C236.316 181.148 234.644 179.476 232.83 177.782C226.52 171.886 218.559 165.794 208.958 160.919C155.719 133.935 132.228 152.417 92.6729 57.9805C36.849 -75.3287 -31.5734 -64.568 -31.5734 -64.568V-49.6702C-28.8908 -50.0394 -26.1322 -50.2131 -23.3084 -50.1805C4.97285 -49.5833 28.5949 -29.5712 45.3529 -8.4732Z" fill="white"/>
<path d="M177.948 240.485C187.27 238.747 194.607 233.799 200.99 227.345C202.44 225.88 203.841 224.334 205.211 222.733C208.599 218.753 211.762 214.43 214.878 210.058C216.071 208.392 217.257 206.719 218.442 205.053C230.232 188.535 242.414 173.145 265.128 175.819C289.46 178.678 303.572 195.445 297.437 226.104C297.437 226.104 295.867 219.018 290.685 210.706C285.503 202.395 277.053 199.192 277.053 199.192C281.146 210.37 277.053 223.862 277.053 223.862C273.505 210.506 250.687 199.905 241.957 221.572C230.432 250.197 267.787 254.793 267.787 254.793C257.535 262.256 245.425 268.077 233.443 272.441C233.131 272.561 232.811 272.673 232.498 272.785C225.49 275.292 218.554 277.301 212.075 278.847C211.234 279.047 210.401 279.239 209.576 279.423C201.327 281.281 193.942 282.354 188.304 282.738C156.131 284.916 124.863 263.529 103.51 230.131C80.3318 193.875 71.6018 140.524 71.6018 140.524C93.6911 190.328 138.406 247.843 177.948 240.485ZM124.054 243.872C124.967 244.921 127.626 247.891 128.611 248.964C130.133 250.526 131.911 252.247 133.489 253.792C135.219 255.226 137.005 256.867 138.775 258.228L142.507 260.983C167.92 278.254 190.794 269.999 206.653 251.647C208.078 250.005 209.44 248.276 210.745 246.482C215.126 240.453 218.835 233.639 221.75 226.456C222.527 224.559 223.232 222.653 223.888 220.723C223.039 222.212 222.174 223.686 221.293 225.127C217.713 231.052 213.949 236.545 209.992 241.438C208.607 243.151 207.197 244.792 205.764 246.346C186.862 266.892 163.627 273.482 134.274 249.429C131.542 247.347 128.435 244.456 125.84 242.174C124.302 240.677 122.58 238.979 121.018 237.498C118.864 235.4 116.854 233.182 114.691 231.084C117.55 235.496 120.714 239.788 124.054 243.872ZM167.992 256.171C182.473 256.931 195.007 249.14 204.098 238.387C205.579 236.649 206.957 234.832 208.246 232.958C210.433 229.771 212.339 226.432 213.933 223.045C211.875 225.688 209.776 228.202 207.638 230.564C206.204 232.133 204.762 233.639 203.289 235.056C187.735 250.117 169.618 256.563 146.848 244.016C133.641 236.609 122.796 226.272 111.96 215.543C124.398 234.551 143.853 254.873 167.992 256.171Z" fill="white"/>
<path d="M68.3013 133.945L51.6285 99.8512C51.0153 98.592 50.8827 97.156 51.2639 95.8084L52.3246 92.0306C52.6782 90.7714 54.1422 90.208 55.247 90.9094L58.5673 93.0027C59.7495 93.7483 60.6168 94.9081 61.0035 96.2502L71.4558 132.73L68.3013 133.945Z" fill="white"/>
<path d="M44.2703 127.516L60.0316 114.846L55.833 103.921L42.2815 122.352L44.2703 127.516Z" fill="white"/>
<path d="M85.1453 111.809L64.9534 112.958L60.7548 102.033L83.162 106.65L85.1453 111.809Z" fill="white"/>
<path d="M58.5502 135.623L66.7816 129.007L64.5884 123.296L57.5116 132.928L58.5502 135.623Z" fill="white"/>
<path d="M79.9019 127.422L69.3557 128.018L67.1625 122.313L78.8633 124.721L79.9019 127.422Z" fill="white"/>
<path d="M94.8981 1.4335C94.8498 1.48482 83.2819 13.8061 83.0565 28.1258C83.0996 28.1989 95.5389 49.3117 100.129 61.5762C104.726 73.862 108.676 81.419 111.343 86.5631L131.057 83.3596L127.374 75.0099L101.039 15.3511L94.8981 1.4335ZM106.841 17.6216L129.631 69.2388L132.265 68.097L109.789 16.343L106.841 17.6216ZM113.82 14.5909L136.296 66.3449L142.165 63.7993L137.928 54.048L144.307 51.2804L140.345 42.158L133.963 44.9275L132.902 42.4861L132.896 42.4702L139.286 39.6972L135.326 30.5749L128.94 33.3452L119.683 12.045L113.82 14.5909Z" fill="white"/>
</g>
<defs>
<clipPath id="clip0_51_647">
<rect width="176" height="315" fill="white" transform="matrix(-1 0 0 1 176 0)"/>
</clipPath>
</defs>
</svg>
