<svg width="547" height="981" viewBox="0 0 547 981" fill="none" xmlns="http://www.w3.org/2000/svg">
<g clip-path="url(#clip0_110_303)">
<path d="M140.956 -26.3902C62.4425 -93.8199 -16.7119 -143.767 -98.1278 -130.815V-91.3513C-26.5682 -98.588 50.5271 -74.2402 99.3699 -22.0617C42.1222 -60.1727 -29.9436 -77.6219 -98.1278 -68.0519V-21.6559C22.4434 -24.0907 131.774 -3.09074 211.03 125.851C290.319 254.793 309.289 420.898 383.414 526.236C457.539 631.574 529.335 655.888 565.52 685.038C601.705 714.187 632.624 797.714 632.624 797.714C650.649 783.984 665.737 769.24 679.307 753.685C675.796 745.028 671.948 736.54 667.864 728.729C605.452 603.067 477.32 602.999 410.958 487.753C491.125 587.241 607.004 584.502 677.248 697.381C684.269 708.777 690.547 720.782 696.116 733.26C709.078 716.622 721.129 699.308 733.786 681.555C709.281 641.11 677.349 605.908 634.919 580.376C608.287 563.806 579.494 550.246 550.297 536.483C491.564 509.632 432.291 477.777 389.153 428.676C439.109 470.439 497.606 496.038 557.655 519.608C607.747 539.154 659.695 563.265 699.728 600.801C704.96 605.705 710.023 610.845 714.816 616.221C715.086 616.526 715.356 616.796 715.627 617.101C728.048 630.695 739.052 645.405 748.774 660.961C758.36 648.11 768.554 635.091 779.996 622.004C779.996 622.004 766.427 598.062 739.221 569.217C734.462 564.144 729.263 558.937 723.626 553.661C704.015 535.299 679.273 516.328 649.434 501.145C483.969 417.111 410.958 474.666 288.024 180.566C114.526 -234.597 -98.1278 -201.085 -98.1278 -201.085V-154.689C-89.7904 -155.839 -81.2168 -156.38 -72.4406 -156.279C15.4562 -154.419 88.8723 -92.0953 140.956 -26.3902Z" fill="white"/>
<path d="M553.054 748.936C582.028 743.525 604.83 728.115 624.669 708.016C629.174 703.452 633.53 698.64 637.787 693.652C648.316 681.259 658.149 667.793 667.832 654.178C671.541 648.991 675.225 643.78 678.909 638.593C715.55 587.149 753.411 539.221 824.005 547.55C899.628 556.452 943.488 608.669 924.42 704.151C924.42 704.151 919.541 682.082 903.436 656.198C887.331 630.314 861.07 620.339 861.07 620.339C873.79 655.151 861.07 697.168 861.07 697.168C850.042 655.575 779.125 622.559 751.992 690.037C716.172 779.184 832.269 793.498 832.269 793.498C800.407 816.739 762.77 834.867 725.532 848.458C724.561 848.832 723.565 849.181 722.595 849.53C700.814 857.335 679.257 863.594 659.119 868.407C656.506 869.03 653.917 869.629 651.353 870.202C625.714 875.988 602.764 879.329 585.239 880.526C485.248 887.309 388.069 820.703 321.706 716.694C249.668 603.782 222.536 437.63 222.536 437.63C291.188 592.735 430.161 771.853 553.054 748.936ZM385.554 759.485C388.392 762.751 396.656 772.003 399.718 775.344C404.448 780.207 409.974 785.568 414.877 790.381C420.254 794.844 425.805 799.956 431.306 804.196L442.906 812.774C521.889 866.562 592.981 840.852 642.267 783.698C646.698 778.586 650.93 773.2 654.987 767.614C668.603 748.837 680.128 727.616 689.189 705.248C691.604 699.338 693.794 693.403 695.835 687.393C693.197 692.032 690.509 696.62 687.77 701.108C676.644 719.561 664.944 736.668 652.648 751.904C648.341 757.24 643.96 762.352 639.504 767.19C580.759 831.177 508.547 851.699 417.317 776.79C408.829 770.307 399.17 761.305 391.105 754.198C386.326 749.535 380.974 744.248 376.12 739.635C369.424 733.102 363.176 726.194 356.455 719.661C365.342 733.401 375.174 746.767 385.554 759.485ZM522.113 797.787C567.118 800.156 606.074 775.893 634.327 742.403C638.932 736.992 643.213 731.331 647.221 725.496C654.017 715.572 659.941 705.173 664.894 694.625C658.497 702.854 651.975 710.684 645.329 718.04C640.874 722.928 636.393 727.616 631.813 732.03C583.472 778.935 527.166 799.009 456.398 759.933C415.35 736.867 381.646 704.674 347.967 671.259C386.625 730.459 447.088 793.747 522.113 797.787Z" fill="white"/>
<path d="M212.277 417.141L160.459 310.964C158.553 307.042 158.141 302.57 159.325 298.373L162.622 286.608C163.721 282.686 168.271 280.932 171.705 283.116L182.024 289.635C185.698 291.957 188.394 295.569 189.596 299.749L222.081 413.357L212.277 417.141Z" fill="white"/>
<path d="M137.589 397.119L186.575 357.662L173.526 323.639L131.408 381.037L137.589 397.119Z" fill="white"/>
<path d="M264.627 348.201L201.871 351.779L188.822 317.757L258.463 332.136L264.627 348.201Z" fill="white"/>
<path d="M181.971 422.368L207.553 401.762L200.737 383.977L178.743 413.974L181.971 422.368Z" fill="white"/>
<path d="M248.331 396.826L215.554 398.684L208.737 380.916L245.103 388.415L248.331 396.826Z" fill="white"/>
<path d="M294.938 4.46309C294.814 4.59531 258.835 42.9796 258.134 87.5915C258.197 87.6988 296.917 153.535 311.195 191.765C325.484 230.027 337.76 253.561 346.046 269.581L407.318 259.606L395.873 233.603L314.027 47.808L294.938 4.46309ZM332.059 54.8826L402.887 215.632L411.072 212.077L341.219 50.9004L332.059 54.8826ZM353.748 45.443L423.6 206.619L441.842 198.691L428.671 168.321L448.498 159.7L436.188 131.291L416.351 139.916L413.054 132.316L413.033 132.265L432.895 123.629L420.586 95.2189L400.741 103.848L371.97 37.5135L353.748 45.443Z" fill="white"/>
</g>
<defs>
<clipPath id="clip0_110_303">
<rect width="547" height="981" fill="white" transform="matrix(-1 0 0 1 547 0)"/>
</clipPath>
</defs>
</svg>
