<svg width="302" height="300" viewBox="0 0 302 300" fill="none" xmlns="http://www.w3.org/2000/svg">
<path d="M96.4481 220.269C96.3397 220.513 96.0952 220.65 95.8504 220.65C95.7553 220.65 95.6601 220.637 95.5785 220.596C94.3677 220.04 93.1841 219.458 92.0276 218.847C91.7011 218.671 91.5782 218.277 91.7544 217.95C91.9307 217.624 92.3248 217.501 92.6513 217.677C93.767 218.274 94.937 218.857 96.1206 219.399C96.4471 219.548 96.5972 219.942 96.4481 220.269ZM93.9914 117.492C94.2221 117.206 94.1672 116.784 93.8814 116.567C93.5955 116.337 93.1741 116.392 92.957 116.677C92.1292 117.712 91.3285 118.746 90.555 119.78C90.3379 120.066 90.3929 120.488 90.6787 120.705C90.8012 120.8 90.9372 120.84 91.0732 120.84C91.2771 120.84 91.4673 120.744 91.603 120.581C92.3765 119.56 93.1772 118.526 93.9914 117.505L93.9914 117.492ZM89.3041 215.738C88.2019 215.046 87.1269 214.313 86.1062 213.567C85.8068 213.35 85.399 213.419 85.1819 213.704C84.9648 214.004 85.0333 214.412 85.3192 214.629C86.3671 215.402 87.4694 216.148 88.5988 216.854C88.7076 216.922 88.83 216.949 88.9524 216.948C89.1699 216.948 89.3873 216.839 89.5093 216.635C89.6992 216.322 89.6171 215.914 89.3041 215.724L89.3041 215.738ZM84.6544 129.21C84.3551 129.007 83.9337 129.103 83.7438 129.402C83.0113 130.518 82.3059 131.62 81.6277 132.722C81.4378 133.035 81.5335 133.443 81.8465 133.633C81.9553 133.701 82.0777 133.728 82.2001 133.727C82.4176 133.727 82.635 133.618 82.757 133.414C83.4353 132.325 84.1271 131.223 84.8461 130.121C85.0496 129.822 84.9674 129.4 84.6544 129.21ZM80.2938 208.518C80.0352 208.26 79.6137 208.247 79.3558 208.519C79.0978 208.778 79.0848 209.199 79.3571 209.457C80.2693 210.394 81.2359 211.304 82.2431 212.172C82.3656 212.281 82.5289 212.335 82.6784 212.335C82.8687 212.335 83.0454 212.253 83.1811 212.103C83.4254 211.831 83.3841 211.409 83.1118 211.165C82.1318 210.324 81.1924 209.428 80.3074 208.518L80.2938 208.518ZM103.164 104.726C102.268 105.706 101.399 106.673 100.53 107.639C100.286 107.912 100.314 108.333 100.586 108.577C100.709 108.686 100.872 108.74 101.021 108.74C101.198 108.74 101.388 108.658 101.511 108.522C102.366 107.555 103.234 106.589 104.117 105.622C104.361 105.35 104.347 104.928 104.075 104.684C103.802 104.44 103.381 104.454 103.137 104.726L103.164 104.726ZM110.851 224.164C109.573 223.894 108.308 223.583 107.07 223.258C106.717 223.15 106.35 223.382 106.255 223.722C106.161 224.075 106.379 224.442 106.732 224.523C107.983 224.861 109.275 225.158 110.567 225.442C110.608 225.442 110.663 225.455 110.703 225.455C111.002 225.455 111.288 225.237 111.355 224.938C111.436 224.584 111.205 224.231 110.851 224.15L110.851 224.164ZM98.8895 110.537C98.6172 110.307 98.1958 110.335 97.9515 110.607C97.0964 111.614 96.2549 112.621 95.427 113.615C95.1963 113.901 95.2377 114.309 95.5099 114.553C95.6324 114.648 95.7821 114.702 95.9316 114.702C96.1219 114.702 96.3122 114.62 96.4479 114.456C97.2622 113.463 98.1037 112.469 98.9588 111.462C99.1895 111.19 99.1617 110.768 98.8895 110.524L98.8895 110.537ZM115.03 93.4797C114.771 93.2217 114.35 93.2087 114.092 93.4674C113.142 94.3932 112.219 95.3054 111.295 96.2176C111.037 96.4763 111.038 96.8978 111.297 97.1557C111.419 97.2915 111.596 97.3456 111.759 97.3454C111.922 97.3452 112.099 97.2769 112.221 97.1544C113.131 96.2422 114.054 95.33 115.004 94.4178C115.262 94.1591 115.275 93.7376 115.017 93.4797L115.03 93.4797ZM103.357 222.176C102.106 221.77 100.882 221.336 99.6982 220.889C99.3582 220.754 98.9778 220.931 98.8423 221.271C98.7068 221.611 98.8841 221.992 99.2242 222.127C100.421 222.588 101.673 223.035 102.951 223.441C103.019 223.468 103.087 223.468 103.155 223.468C103.441 223.467 103.699 223.29 103.78 223.004C103.888 222.651 103.697 222.284 103.357 222.176ZM106.805 102.763C107.687 101.824 108.583 100.885 109.506 99.9453C109.764 99.6866 109.75 99.2652 109.505 99.0072C109.246 98.7493 108.825 98.7634 108.567 99.0085C107.643 99.9615 106.734 100.901 105.852 101.84C105.607 102.112 105.608 102.52 105.88 102.778C106.003 102.9 106.166 102.955 106.329 102.954C106.506 102.954 106.682 102.886 106.805 102.75L106.805 102.763ZM67.3754 177.675C67.7425 177.674 68.0276 177.388 68.0407 177.021C68.0389 175.743 68.105 174.452 68.1983 173.16C68.225 172.793 67.9527 172.481 67.5856 172.454C67.2321 172.441 66.9061 172.7 66.8795 173.067C66.7726 174.386 66.7201 175.718 66.7083 177.023C66.7089 177.39 66.9948 177.689 67.3618 177.688L67.3754 177.675ZM68.5682 184.716C68.3761 183.465 68.2383 182.174 68.1549 180.882C68.1272 180.515 67.8141 180.244 67.4471 180.271C67.08 180.299 66.8086 180.612 66.8363 180.979C66.9197 182.298 67.0712 183.63 67.2633 184.921C67.3182 185.248 67.5904 185.492 67.9167 185.491C67.9439 185.491 67.9847 185.491 68.0119 185.491C68.3789 185.436 68.6231 185.096 68.5682 184.743L68.5682 184.716ZM67.881 169.87C67.881 169.87 67.949 169.87 67.9762 169.87C68.3025 169.87 68.5876 169.625 68.6279 169.298C68.8029 168.047 69.0186 166.756 69.2751 165.477C69.3426 165.124 69.111 164.77 68.7574 164.703C68.4038 164.636 68.0507 164.867 67.9832 165.221C67.7267 166.526 67.4974 167.832 67.3225 169.11C67.2687 169.477 67.5274 169.803 67.881 169.857L67.881 169.87ZM69.3384 162.187C69.3384 162.187 69.4472 162.214 69.5016 162.214C69.8007 162.214 70.0587 162.009 70.1399 161.724C70.4508 160.5 70.8161 159.235 71.2086 157.997C71.3169 157.643 71.126 157.277 70.7724 157.168C70.4188 157.06 70.052 157.251 69.9437 157.605C69.5512 158.869 69.186 160.148 68.8615 161.399C68.7668 161.753 68.9848 162.12 69.3384 162.201L69.3384 162.187ZM86.4869 127.168C86.6908 127.168 86.9082 127.073 87.0303 126.882C87.763 125.834 88.5092 124.773 89.2826 123.698C89.4997 123.398 89.4312 122.991 89.1318 122.773C88.8324 122.556 88.4246 122.625 88.2075 122.924C87.4205 123.999 86.6743 125.061 85.9416 126.136C85.7381 126.435 85.8067 126.843 86.1061 127.06C86.215 127.142 86.351 127.182 86.4869 127.182L86.4869 127.168ZM75.4319 202.556C75.2275 202.258 74.8195 202.177 74.5071 202.381C74.2083 202.585 74.1273 202.993 74.3317 203.306C75.0674 204.392 75.871 205.465 76.7018 206.484C76.838 206.647 77.0284 206.728 77.2188 206.728C77.3683 206.727 77.5178 206.673 77.64 206.578C77.9252 206.346 77.9654 205.925 77.7339 205.653C76.9167 204.662 76.1403 203.616 75.4319 202.57L75.4319 202.556ZM74.5246 147.442C74.6198 147.483 74.7014 147.497 74.7965 147.496C75.0548 147.496 75.2858 147.346 75.3942 147.115C75.9228 145.959 76.4785 144.789 77.0614 143.605C77.2241 143.278 77.0876 142.884 76.7611 142.722C76.4346 142.559 76.0405 142.695 75.8778 143.022C75.2813 144.219 74.712 145.403 74.1834 146.573C74.0344 146.899 74.1845 147.293 74.511 147.442L74.5246 147.442ZM69.3077 188.508C69.2256 188.154 68.8718 187.924 68.5185 188.019C68.1651 188.101 67.9481 188.455 68.0302 188.809C68.3311 190.1 68.7 191.391 69.1096 192.627C69.2051 192.899 69.4637 193.075 69.7356 193.075C69.8036 193.075 69.8716 193.075 69.9395 193.048C70.2792 192.938 70.469 192.557 70.3598 192.218C69.9638 191.008 69.6086 189.758 69.3077 188.508ZM73.4947 149.823C73.1546 149.688 72.7742 149.851 72.6387 150.178C72.1374 151.416 71.6633 152.64 71.2164 153.85C71.0945 154.191 71.2718 154.571 71.6118 154.693C71.6798 154.72 71.7614 154.733 71.843 154.733C72.1149 154.733 72.373 154.569 72.4678 154.297C72.9011 153.1 73.3616 151.89 73.8629 150.665C73.9984 150.325 73.8347 149.945 73.5083 149.809L73.4947 149.823ZM71.7244 195.818C71.5744 195.479 71.1935 195.33 70.8538 195.48C70.5142 195.63 70.3652 196.011 70.5152 196.35C71.0471 197.56 71.6334 198.755 72.274 199.923C72.3967 200.141 72.6144 200.263 72.8591 200.263C72.9679 200.262 73.0766 200.235 73.1717 200.18C73.4977 200.003 73.6059 199.609 73.4287 199.283C72.8153 198.155 72.2427 197.001 71.7244 195.832L71.7244 195.818ZM80.5309 135.851C80.2179 135.661 79.8102 135.77 79.6203 136.097C78.9558 137.253 78.3184 138.396 77.6946 139.525C77.5184 139.852 77.6413 140.246 77.9678 140.422C78.0631 140.477 78.1719 140.504 78.2806 140.503C78.5117 140.503 78.7427 140.38 78.8647 140.163C79.4749 139.033 80.1123 137.904 80.7633 136.761C80.9532 136.448 80.8438 136.041 80.5173 135.864L80.5309 135.851ZM208.042 203.878C206.901 204.518 205.76 205.132 204.619 205.745C204.293 205.922 204.171 206.317 204.348 206.643C204.471 206.86 204.702 206.996 204.933 206.996C205.042 206.995 205.151 206.968 205.246 206.914C206.387 206.3 207.542 205.673 208.697 205.033C209.009 204.855 209.131 204.447 208.954 204.135C208.776 203.822 208.368 203.701 208.056 203.878L208.042 203.878ZM194.131 210.954C192.935 211.499 191.753 212.031 190.571 212.549C190.231 212.699 190.082 213.08 190.232 213.42C190.342 213.664 190.586 213.814 190.845 213.813C190.926 213.813 191.021 213.799 191.103 213.758C192.299 213.24 193.494 212.695 194.69 212.149C195.016 211.999 195.165 211.605 195.015 211.279C194.865 210.952 194.47 210.803 194.144 210.953L194.131 210.954ZM201.155 207.545C199.986 208.145 198.818 208.717 197.663 209.276C197.337 209.44 197.202 209.834 197.352 210.16C197.461 210.391 197.706 210.527 197.95 210.527C198.046 210.527 198.141 210.499 198.236 210.458C199.404 209.886 200.573 209.313 201.755 208.713C202.081 208.549 202.202 208.155 202.039 207.829C201.875 207.503 201.481 207.368 201.155 207.545ZM172.322 219.4C171.072 219.796 169.822 220.165 168.585 220.52C168.232 220.616 168.028 220.983 168.138 221.336C168.22 221.622 168.492 221.812 168.777 221.811C168.832 221.811 168.9 221.811 168.954 221.784C170.204 221.429 171.454 221.046 172.718 220.65C173.072 220.541 173.261 220.173 173.152 219.82C173.043 219.467 172.676 219.277 172.322 219.386L172.322 219.4ZM186.984 214.077C185.775 214.582 184.565 215.059 183.356 215.523C183.016 215.66 182.84 216.041 182.977 216.38C183.072 216.638 183.331 216.801 183.589 216.801C183.671 216.801 183.752 216.787 183.834 216.76C185.043 216.296 186.266 215.805 187.475 215.3C187.815 215.163 187.978 214.769 187.827 214.443C187.691 214.103 187.297 213.941 186.97 214.091L186.984 214.077ZM179.715 216.901C178.478 217.352 177.255 217.775 176.032 218.198C175.692 218.321 175.503 218.688 175.612 219.042C175.707 219.314 175.966 219.49 176.238 219.49C176.306 219.489 176.374 219.489 176.455 219.448C177.692 219.025 178.928 218.602 180.165 218.152C180.505 218.029 180.681 217.648 180.558 217.308C180.435 216.968 180.054 216.792 179.715 216.915L179.715 216.901ZM214.794 199.953C213.666 200.634 212.552 201.288 211.438 201.943C211.126 202.12 211.018 202.528 211.195 202.84C211.318 203.058 211.535 203.166 211.766 203.166C211.875 203.165 211.998 203.138 212.093 203.07C213.22 202.416 214.348 201.748 215.475 201.067C215.787 200.876 215.882 200.468 215.705 200.155C215.514 199.843 215.106 199.748 214.794 199.926L214.794 199.953ZM227.86 191.41C226.787 192.159 225.714 192.895 224.641 193.631C224.342 193.835 224.262 194.243 224.466 194.555C224.589 194.746 224.806 194.84 225.01 194.84C225.132 194.84 225.268 194.799 225.377 194.731C226.45 193.995 227.537 193.26 228.61 192.497C228.908 192.292 228.976 191.871 228.771 191.572C228.567 191.273 228.145 191.206 227.847 191.41L227.86 191.41ZM235.1 186.954C234.882 186.669 234.461 186.602 234.176 186.82C233.13 187.61 232.084 188.372 231.038 189.135C230.74 189.353 230.672 189.761 230.89 190.06C231.026 190.236 231.217 190.331 231.421 190.331C231.557 190.331 231.693 190.29 231.815 190.208C232.861 189.445 233.92 188.669 234.966 187.879C235.251 187.661 235.318 187.239 235.1 186.954ZM221.395 195.797C220.295 196.519 219.208 197.214 218.108 197.909C217.796 198.1 217.701 198.508 217.905 198.82C218.028 199.024 218.246 199.132 218.463 199.132C218.586 199.132 218.708 199.104 218.817 199.036C219.917 198.341 221.017 197.633 222.117 196.911C222.43 196.706 222.511 196.298 222.306 196C222.102 195.701 221.694 195.606 221.395 195.811L221.395 195.797ZM126.284 226.086C124.979 226.033 123.688 225.954 122.396 225.847C122.015 225.793 121.716 226.092 121.69 226.446C121.663 226.813 121.935 227.125 122.289 227.152C123.581 227.259 124.899 227.339 126.218 227.391L126.245 227.391C126.599 227.391 126.884 227.118 126.911 226.765C126.924 226.398 126.638 226.085 126.284 226.072L126.284 226.086ZM132.411 78.6906C132.696 78.4591 132.723 78.0376 132.491 77.7524C132.26 77.4808 131.838 77.4406 131.553 77.6721C130.548 78.5301 129.557 79.3744 128.579 80.2187C128.308 80.4638 128.268 80.8717 128.513 81.1569C128.649 81.3062 128.826 81.3875 129.016 81.3873C129.166 81.387 129.329 81.3324 129.451 81.2235C130.429 80.3792 131.42 79.5349 132.425 78.677L132.411 78.6906ZM125.619 82.806C124.628 83.6775 123.651 84.549 122.7 85.4204C122.429 85.6655 122.402 86.087 122.647 86.3586C122.783 86.5079 122.96 86.5756 123.137 86.5754C123.3 86.5752 123.449 86.5206 123.585 86.4116C124.536 85.5402 125.513 84.6823 126.504 83.8108C126.776 83.5657 126.803 83.1578 126.558 82.8726C126.312 82.6011 125.891 82.5745 125.619 82.8196L125.619 82.806ZM164.821 221.545C163.557 221.873 162.293 222.188 161.043 222.488C160.689 222.57 160.472 222.924 160.554 223.278C160.623 223.577 160.895 223.794 161.194 223.793C161.248 223.793 161.289 223.793 161.343 223.78C162.607 223.479 163.885 223.164 165.162 222.836C165.516 222.74 165.733 222.387 165.637 222.033C165.541 221.68 165.174 221.463 164.834 221.559L164.821 221.545ZM134.061 226.129C133.055 226.158 132.063 226.173 131.084 226.174L130.173 226.176C129.833 226.122 129.507 226.462 129.508 226.829C129.508 227.196 129.794 227.495 130.161 227.494L131.086 227.493C132.078 227.492 133.084 227.49 134.104 227.448C134.471 227.447 134.756 227.134 134.742 226.767C134.741 226.4 134.442 226.129 134.061 226.129ZM118.534 225.444C117.229 225.283 115.951 225.095 114.686 224.892C114.332 224.839 113.979 225.07 113.925 225.437C113.858 225.804 114.103 226.144 114.47 226.198C115.749 226.414 117.054 226.602 118.373 226.763C118.4 226.763 118.427 226.763 118.454 226.763C118.781 226.763 119.066 226.518 119.106 226.178C119.146 225.811 118.888 225.485 118.534 225.444ZM119.808 88.062C118.844 88.9606 117.88 89.8593 116.943 90.7443C116.685 91.003 116.672 91.4109 116.917 91.6824C117.053 91.8182 117.217 91.8859 117.393 91.8857C117.557 91.8855 117.72 91.8308 117.842 91.7083C118.779 90.8233 119.729 89.9247 120.693 89.0396C120.965 88.7945 120.978 88.373 120.733 88.1015C120.487 87.8299 120.066 87.8169 119.794 88.062L119.808 88.062ZM149.571 224.707C148.28 224.899 146.989 225.078 145.711 225.243C145.344 225.284 145.086 225.611 145.141 225.978C145.182 226.318 145.468 226.562 145.794 226.561C145.822 226.561 145.849 226.561 145.876 226.561C147.167 226.41 148.459 226.231 149.777 226.026C150.144 225.971 150.388 225.63 150.333 225.277C150.278 224.91 149.952 224.666 149.585 224.721L149.571 224.707ZM157.237 223.323C155.959 223.583 154.682 223.843 153.404 224.063C153.051 224.131 152.807 224.471 152.875 224.825C152.93 225.151 153.216 225.368 153.528 225.368C153.569 225.368 153.61 225.368 153.651 225.367C154.928 225.135 156.22 224.888 157.511 224.614C157.864 224.546 158.095 224.192 158.026 223.825C157.958 223.472 157.604 223.241 157.251 223.309L157.237 223.323ZM138.521 72.7544C138.289 72.4692 137.868 72.429 137.596 72.6605C136.578 73.4913 135.559 74.322 134.568 75.1528C134.283 75.3843 134.242 75.8058 134.488 76.0909C134.624 76.2539 134.814 76.3352 135.005 76.3349C135.154 76.3347 135.304 76.2801 135.426 76.1848C136.417 75.3541 137.422 74.5369 138.44 73.7062C138.726 73.4746 138.766 73.0531 138.534 72.7816L138.521 72.7544ZM141.823 225.656C140.518 225.78 139.227 225.877 137.935 225.947C137.568 225.975 137.297 226.288 137.311 226.641C137.339 226.995 137.625 227.266 137.964 227.266L138.005 227.266C139.297 227.182 140.615 227.085 141.934 226.961C142.301 226.933 142.559 226.607 142.531 226.24C142.503 225.873 142.177 225.628 141.81 225.643L141.823 225.656Z" fill="#216FAD"/>
<path d="M161.039 56.816C163.755 54.6369 166.701 51.4922 166.224 50.9083C165.748 50.3244 162.039 52.5049 159.323 54.6976C159.079 54.9018 158.834 55.0925 158.604 55.2832C158.128 55.2023 157.135 55.0405 155.87 54.8384C155.884 54.8384 155.911 54.8383 155.925 54.8383L156.658 54.2527C156.753 54.1846 156.753 54.035 156.658 53.94L156.086 53.2338C156.004 53.1252 155.868 53.0982 155.773 53.1799L155.04 53.7655C155.04 53.7655 154.985 53.8472 154.972 53.9016L154.116 54.5826C153.042 54.4074 151.872 54.2187 150.717 54.03L151.436 53.458C151.531 53.3898 151.531 53.2403 151.436 53.1453L150.864 52.4391C150.782 52.3305 150.646 52.3035 150.551 52.3852L149.818 52.9708C149.818 52.9708 149.764 53.0525 149.75 53.1069L148.922 53.7606C145.984 53.2889 143.523 52.9117 143.442 52.9391C143.238 53.0073 142.192 53.9061 142.192 53.9061C141.934 54.1104 141.758 54.301 141.771 54.3281C141.799 54.3553 142.097 54.1509 142.342 53.9603L147.742 55.9239C147.552 56.1009 147.443 56.2642 147.484 56.3186C147.539 56.3865 147.783 56.2638 148.028 56.0595L148.055 56.0323L149.116 56.425C148.939 56.5884 148.831 56.7517 148.872 56.806C148.926 56.8739 149.171 56.7512 149.415 56.5469L150.381 56.8855L150.966 57.3061C150.749 57.4967 150.599 57.6873 150.64 57.7416C150.695 57.8095 150.939 57.6868 151.184 57.4825L151.197 57.4825L152.354 58.2966C152.137 58.4872 151.988 58.6778 152.042 58.7321C152.096 58.8 152.341 58.6773 152.585 58.473L153.647 59.2328C151.841 60.7173 151.135 61.3165 149.79 62.406C148.432 63.4955 147.197 64.6393 146.206 65.6603C144.601 65.4179 141.433 64.8922 141.433 64.8922L140.618 65.4371L144.061 68.0969C143.871 68.3555 143.722 68.5597 143.641 68.7229C143.111 69.2131 142.799 69.5398 142.84 69.5942C142.881 69.6485 143.261 69.4304 143.831 69.0217C144.008 68.9671 144.253 68.8444 144.565 68.6944L146.433 72.6752L147.153 72.008C147.153 72.008 147.338 68.5817 147.445 67.0181C148.613 66.2823 149.944 65.4103 151.33 64.4431C153.013 63.0948 153.774 62.5227 155.336 61.2969L155.84 62.4926C155.582 62.7105 155.42 62.9146 155.474 62.9825C155.515 63.0369 155.732 62.9414 155.977 62.7643L156.536 64.0823L156.522 64.0823C156.264 64.3002 156.102 64.5179 156.156 64.5722C156.197 64.6266 156.428 64.5311 156.659 64.354L156.945 65.0062L157.083 66.0256C156.825 66.2299 156.662 66.4477 156.716 66.5156C156.757 66.5699 156.934 66.5017 157.137 66.3518L157.289 67.48L157.261 67.4801C157.003 67.698 156.841 67.9157 156.895 67.9836C156.936 68.0379 157.126 67.9561 157.33 67.8063L158.072 73.5016C157.841 73.7059 157.57 73.951 157.583 73.9782C157.61 74.0053 157.828 73.8691 158.086 73.6648C158.086 73.6648 159.199 72.8339 159.294 72.657C159.335 72.589 159.495 70.1008 159.681 67.1368L160.509 66.483C160.509 66.483 160.618 66.4829 160.659 66.4556L161.392 65.87C161.487 65.8019 161.487 65.6523 161.392 65.5573L160.82 64.8511C160.738 64.7425 160.602 64.7155 160.507 64.7972L159.787 65.3692C159.853 64.1999 159.92 63.0306 159.986 61.9293L160.842 61.2483C160.842 61.2483 160.95 61.2482 160.991 61.2209L161.725 60.6353C161.82 60.5672 161.819 60.4176 161.724 60.3226L161.152 59.6165C161.07 59.5078 160.934 59.4808 160.839 59.5625L160.106 60.1482C160.106 60.1482 160.106 60.1754 160.079 60.2026C160.159 58.9381 160.212 57.9456 160.238 57.4561C160.469 57.2654 160.713 57.0748 160.971 56.8705L161.039 56.816Z" fill="#216FAD"/>
</svg>
