<svg width="48" height="48" viewBox="0 0 48 48" fill="none" xmlns="http://www.w3.org/2000/svg">
<rect width="48" height="48" rx="14" fill="#216FAD"/>
<path d="M24 7C33.9414 7 42 15.0586 42 25C42 34.9414 33.9414 43 24 43C14.0586 43 6 34.9414 6 25C6 15.0586 14.0586 7 24 7ZM24 14.2C23.5226 14.2 23.0648 14.3896 22.7272 14.7272C22.3896 15.0648 22.2 15.5226 22.2 16V25C22.2001 25.4774 22.3898 25.9351 22.7274 26.2726L28.1274 31.6726C28.4669 32.0005 28.9216 32.1819 29.3935 32.1778C29.8655 32.1737 30.3169 31.9844 30.6507 31.6507C30.9844 31.3169 31.1737 30.8655 31.1778 30.3935C31.1819 29.9216 31.0005 29.4669 30.6726 29.1274L25.8 24.2548V16C25.8 15.5226 25.6104 15.0648 25.2728 14.7272C24.9352 14.3896 24.4774 14.2 24 14.2Z" fill="white"/>
</svg>
